<svg xmlns="http://www.w3.org/2000/svg" width="240" height="240" viewBox="0 0 240 240"><rect width="240" height="240" fill="#F4E7D6"/><circle cx="120" cy="112" r="92" fill="#fff" opacity="0.45"/><path d="M58 150 h124 a4 4 0 0 1 4 4 v8 a10 10 0 0 1 -10 10 h-112 a10 10 0 0 1 -10 -10 v-8 a4 4 0 0 1 4 -4 z" fill="#FFFDF9" stroke="#7A5236" stroke-width="4"/><circle cx="92" cy="150" r="16" fill="#f3c44a" stroke="#5A3A29" stroke-width="3"/><circle cx="92" cy="150" r="7" fill="#fff"/><circle cx="138" cy="150" r="14" fill="#d9a441" stroke="#5A3A29" stroke-width="3"/><path d="M160 140 q14 10 0 20" fill="none" stroke="#6E8B5B" stroke-width="4"/><rect x="64" y="120" width="40" height="20" rx="6" fill="#e7b04a" stroke="#5A3A29" stroke-width="3"/><circle cx="118" cy="120" r="9" fill="#C0563F"/></svg>