<svg xmlns="http://www.w3.org/2000/svg" width="240" height="240" viewBox="0 0 240 240"><rect width="240" height="240" fill="#F4E7D6"/><circle cx="120" cy="112" r="92" fill="#fff" opacity="0.45"/><rect x="64" y="156" width="112" height="20" rx="9" fill="#E0A23C" stroke="#5A3A29" stroke-width="4"/><rect x="70" y="138" width="100" height="20" rx="8" fill="#5A3A29"/><path d="M74 132 h92 v5 h-92 z" fill="#E0A23C"/><path d="M58 128 q7 -13 14 0 q7 -13 14 0 q7 -13 14 0 q7 -13 14 0 q7 -13 14 0 q7 -13 14 0 q7 -13 14 0 l0 9 h-126 z" fill="#6E8B5B" stroke="#5A3A29" stroke-width="2.5"/><circle x="0" y="0" r="0"/><circle cx="100" cy="122" r="8" fill="#C0563F"/><circle cx="140" cy="122" r="8" fill="#C0563F"/><path d="M64 116 Q64 86 120 86 Q176 86 176 116 Z" fill="#E0A23C" stroke="#5A3A29" stroke-width="5"/><circle cx="100" cy="102" r="3" fill="#FFFDF9"/><circle cx="120" cy="98" r="3" fill="#FFFDF9"/><circle cx="140" cy="102" r="3" fill="#FFFDF9"/></svg>